name analog
datacolumns 19
datarows 23
range 0.3675 0.3785
endheader
time	ground_force_vx	ground_force_vy	ground_force_vz	ground_force_px	ground_force_py	ground_force_pz	l_ground_force_vx	l_ground_force_vy	l_ground_force_vz	l_ground_force_px	l_ground_force_py	l_ground_force_pz	ground_torque_x	ground_torque_y	ground_torque_z	l_ground_torque_x	l_ground_torque_y	l_ground_torque_z
0.3675	-0.0	-0.0	-0.0	-0.0	-0.0	-0.0	0.2071533501148224	-5.637787342071533	-515.7554321289062	-0.0	-0.0	-0.0	-0.0	-0.0	-0.0	150801.5625	21830.951171875	661.2662353515625
0.368	-0.0	-0.0	-0.0	-0.0	-0.0	-0.0	-0.0	-5.711154937744141	-515.1162719726562	-0.0	-0.0	-0.0	-0.0	-0.0	-0.0	150409.0625	21887.251953125	503.1546936035156
0.3685	-0.0	-0.0	-0.0	-0.0	-0.0	-0.0	0.5922605991363525	-6.300705909729004	-515.170654296875	-0.0	-0.0	-0.0	-0.0	-0.0	-0.0	150232.46875	21678.333984375	651.4296875
0.369	-0.0	-0.0	-0.0	-0.0	-0.0	-0.0	0.605908989906311	-7.007413864135742	-513.4241333007812	-0.0	-0.0	-0.0	-0.0	-0.0	-0.0	149895.328125	21812.7578125	497.901611328125
0.3695	-0.0	-0.0	-0.0	-0.0	-0.0	-0.0	0.932532787322998	-7.668911457061768	-512.6141357421875	-0.0	-0.0	-0.0	-0.0	-0.0	-0.0	149547.796875	21986.427734375	369.1581726074219
0.37	-0.0	-0.0	-0.0	-0.0	-0.0	-0.0	0.8287920951843262	-8.067535400390625	-512.2652587890625	-0.0	-0.0	-0.0	-0.0	-0.0	-0.0	149435.8125	21613.220703125	107.86003112792967
0.3705	-0.0	-0.0	-0.0	-0.0	-0.0	-0.0	0.7249608635902405	-7.906252861022949	-511.3869018554688	-0.0	-0.0	-0.0	-0.0	-0.0	-0.0	149041.328125	21442.91015625	-95.59239196777344
0.371	-0.0	-0.0	-0.0	-0.0	-0.0	-0.0	0.9451385736465454	-7.814811706542969	-510.91644287109375	-0.0	-0.0	-0.0	-0.0	-0.0	-0.0	148958.328125	21561.419921875	-337.8763427734375
0.3715	-0.0	-0.0	-0.0	-0.0	-0.0	-0.0	1.1224479675292969	-7.975959300994873	-510.1105346679688	-0.0	-0.0	-0.0	-0.0	-0.0	-0.0	148759.71875	21346.1328125	-238.53993225097656
0.372	-0.0	-0.0	-0.0	-0.0	-0.0	-0.0	1.612267255783081	-7.787713527679443	-510.8697204589844	-0.0	-0.0	-0.0	-0.0	-0.0	-0.0	148971.0	20996.544921875	-110.51985931396484
0.3725	-0.0	-0.0	-0.0	-0.0	-0.0	-0.0	2.8963782787323	-8.182975769042969	-511.38482666015625	-0.0	-0.0	-0.0	-0.0	-0.0	-0.0	149070.921875	20718.693359375	14.057419776916504
0.373	-0.0	-0.0	-0.0	-0.0	-0.0	-0.0	3.772648811340332	-8.60893440246582	-509.1858215332031	-0.0	-0.0	-0.0	-0.0	-0.0	-0.0	148926.25	20441.876953125	145.2327117919922
0.3735	-0.0	-0.0	-0.0	-0.0	-0.0	-0.0	2.8127222061157227	-8.577508926391602	-504.5450134277344	-0.0	-0.0	-0.0	-0.0	-0.0	-0.0	147822.3125	19908.283203125	-291.578125
0.374	-0.0	-0.0	-0.0	-0.0	-0.0	-0.0	2.493972063064575	-8.775165557861328	-503.662353515625	-0.0	-0.0	-0.0	-0.0	-0.0	-0.0	147599.5625	19753.53515625	-283.2095642089844
0.3745	-0.0	-0.0	-0.0	-0.0	-0.0	-0.0	3.4342305660247803	-7.683986663818359	-504.4618835449219	-0.0	-0.0	-0.0	-0.0	-0.0	-0.0	147784.890625	19213.642578125	-104.35675811767578
0.375	-0.0	-0.0	-0.0	-0.0	-0.0	-0.0	5.176967144012451	-6.12579870223999	-504.4616394042969	-0.0	-0.0	-0.0	-0.0	-0.0	-0.0	148288.234375	18584.947265625	363.40142822265625
0.3755	-0.0	-0.0	-0.0	-0.0	-0.0	-0.0	7.695061206817627	-5.555229187011719	-505.4104614257813	-0.0	-0.0	-0.0	-0.0	-0.0	-0.0	148196.359375	18433.640625	848.3414916992188
0.376	-0.0	-0.0	-0.0	-0.0	-0.0	-0.0	9.129898071289062	-5.661241054534912	-504.7130737304688	-0.0	-0.0	-0.0	-0.0	-0.0	-0.0	148706.28125	17735.67578125	1253.8511962890625
0.3765	-0.0	-0.0	-0.0	-0.0	-0.0	-0.0	10.428104400634766	-5.154636859893799	-505.571533203125	-0.0	-0.0	-0.0	-0.0	-0.0	-0.0	148978.875	17273.6015625	1645.812255859375
0.377	-0.0	-0.0	-0.0	-0.0	-0.0	-0.0	11.290470123291016	-4.737257480621338	-505.825439453125	-0.0	-0.0	-0.0	-0.0	-0.0	-0.0	149352.328125	16739.58203125	1848.6964111328125
0.3775	-0.0	-0.0	-0.0	-0.0	-0.0	-0.0	11.838637351989746	-3.637320518493652	-504.1111755371094	-0.0	-0.0	-0.0	-0.0	-0.0	-0.0	149566.09375	16478.548828125	2059.732421875
0.378	-0.0	-0.0	-0.0	-0.0	-0.0	-0.0	12.718159675598145	-3.709510803222656	-504.1109313964844	-0.0	-0.0	-0.0	-0.0	-0.0	-0.0	149402.625	15914.3701171875	2197.80517578125
0.3785	-0.0	-0.0	-0.0	-0.0	-0.0	-0.0	13.64512538909912	-3.0749950408935547	-502.2452392578125	-0.0	-0.0	-0.0	-0.0	-0.0	-0.0	149210.015625	15472.6044921875	2632.63525390625
